<svg width="16" height="16" viewBox="0 0 16 16" fill="none" xmlns="http://www.w3.org/2000/svg">
<path d="M10.3871 8.00001C10.3871 9.32001 9.32044 10.3867 8.00044 10.3867C6.68044 10.3867 5.61377 9.32001 5.61377 8.00001C5.61377 6.68001 6.68044 5.61334 8.00044 5.61334C9.32044 5.61334 10.3871 6.68001 10.3871 8.00001Z" stroke="#5E5E5E" stroke-width="1.5" stroke-linecap="round" stroke-linejoin="round"/>
<path d="M7.9999 13.5133C10.3532 13.5133 12.5466 12.1267 14.0732 9.72668C14.6732 8.78668 14.6732 7.20668 14.0732 6.26668C12.5466 3.86668 10.3532 2.48001 7.9999 2.48001C5.64656 2.48001 3.45323 3.86668 1.92656 6.26668C1.32656 7.20668 1.32656 8.78668 1.92656 9.72668C3.45323 12.1267 5.64656 13.5133 7.9999 13.5133Z" stroke="#5E5E5E" stroke-width="1.5" stroke-linecap="round" stroke-linejoin="round"/>
</svg>
