<svg width="40" height="40" viewBox="0 0 40 40" fill="none" xmlns="http://www.w3.org/2000/svg">
<rect x="0.5" y="0.5" width="39" height="39" rx="7.5" stroke="#DADCE0"/>
<path d="M13.3999 10.1H26.5999C27.6999 10.1 28.5999 11 28.5999 12.1V14.3C28.5999 15.1 28.0999 16.1 27.5999 16.6L23.2999 20.4C22.6999 20.9 22.2999 21.9 22.2999 22.7V27C22.2999 27.6 21.8999 28.4 21.3999 28.7L19.9999 29.6C18.6999 30.4 16.8999 29.5 16.8999 27.9V22.6C16.8999 21.9 16.4999 21 16.0999 20.5L12.2999 16.5C11.7999 16 11.3999 15.1 11.3999 14.5V12.2C11.3999 11 12.2999 10.1 13.3999 10.1Z" stroke="#202020" stroke-width="1.5" stroke-miterlimit="10" stroke-linecap="round" stroke-linejoin="round"/>
<path d="M18.93 10.1L14 18" stroke="#202020" stroke-width="1.5" stroke-miterlimit="10" stroke-linecap="round" stroke-linejoin="round"/>
</svg>
