<svg width="100" height="100" viewBox="0 0 100 100" fill="none" xmlns="http://www.w3.org/2000/svg">
<circle cx="50" cy="50" r="50" fill="#EAF3EB"/>
<path d="M59.9997 43.1834C59.9497 43.1834 59.9164 43.1834 59.8664 43.1834H59.783C56.633 43.0834 54.283 40.6501 54.283 37.6501C54.283 34.5834 56.783 32.1001 59.833 32.1001C62.883 32.1001 65.383 34.6001 65.383 37.6501C65.3664 40.6668 63.0164 43.1001 60.0164 43.2001C60.0164 43.1834 60.0164 43.1834 59.9997 43.1834ZM59.833 34.5834C58.1497 34.5834 56.783 35.9501 56.783 37.6334C56.783 39.2834 58.0664 40.6168 59.7164 40.6834C59.733 40.6668 59.8664 40.6668 60.0164 40.6834C61.633 40.6001 62.883 39.2668 62.8997 37.6334C62.8997 35.9501 61.533 34.5834 59.833 34.5834Z" fill="#166A37"/>
<path d="M60.0167 55.4668C59.3667 55.4668 58.7167 55.4167 58.0667 55.3001C57.3834 55.1834 56.9334 54.5334 57.05 53.8501C57.1667 53.1667 57.8167 52.7167 58.5 52.8334C60.55 53.1834 62.7167 52.8001 64.1667 51.8334C64.95 51.3168 65.3667 50.6667 65.3667 50.0167C65.3667 49.3667 64.9334 48.7334 64.1667 48.2167C62.7167 47.2501 60.5167 46.8667 58.45 47.2334C57.7667 47.3667 57.1167 46.9001 57 46.2167C56.8834 45.5334 57.3334 44.8834 58.0167 44.7668C60.7334 44.2834 63.55 44.8001 65.55 46.1334C67.0167 47.1167 67.8667 48.5167 67.8667 50.0167C67.8667 51.5001 67.0334 52.9168 65.55 53.9168C64.0334 54.9168 62.0667 55.4668 60.0167 55.4668Z" fill="#166A37"/>
<path d="M39.95 43.1835C39.9333 43.1835 39.9167 43.1835 39.9167 43.1835C36.9167 43.0835 34.5667 40.6502 34.55 37.6502C34.55 34.5835 37.05 32.0835 40.1 32.0835C43.15 32.0835 45.65 34.5835 45.65 37.6335C45.65 40.6502 43.3 43.0835 40.3 43.1835L39.95 41.9335L40.0667 43.1835C40.0333 43.1835 39.9833 43.1835 39.95 43.1835ZM40.1167 40.6835C40.2167 40.6835 40.3 40.6835 40.4 40.7002C41.8833 40.6335 43.1833 39.3002 43.1833 37.6502C43.1833 35.9668 41.8167 34.6002 40.1333 34.6002C38.45 34.6002 37.0833 35.9668 37.0833 37.6502C37.0833 39.2835 38.35 40.6002 39.9667 40.7002C39.9833 40.6835 40.05 40.6835 40.1167 40.6835Z" fill="#166A37"/>
<path d="M39.9333 55.4668C37.8833 55.4668 35.9166 54.9168 34.4 53.9168C32.9333 52.9334 32.0833 51.5167 32.0833 50.0167C32.0833 48.5334 32.9333 47.1167 34.4 46.1334C36.4 44.8001 39.2166 44.2834 41.9333 44.7668C42.6166 44.8834 43.0666 45.5334 42.95 46.2167C42.8333 46.9001 42.1833 47.3667 41.5 47.2334C39.4333 46.8667 37.25 47.2501 35.7833 48.2167C35 48.7334 34.5833 49.3667 34.5833 50.0167C34.5833 50.6667 35.0166 51.3168 35.7833 51.8334C37.2333 52.8001 39.4 53.1834 41.45 52.8334C42.1333 52.7167 42.7833 53.1834 42.9 53.8501C43.0166 54.5334 42.5666 55.1834 41.8833 55.3001C41.2333 55.4167 40.5833 55.4668 39.9333 55.4668Z" fill="#166A37"/>
<path d="M49.9997 55.6332C49.9497 55.6332 49.9164 55.6332 49.8664 55.6332H49.783C46.633 55.5332 44.283 53.0998 44.283 50.0998C44.283 47.0331 46.783 44.5498 49.833 44.5498C52.883 44.5498 55.383 47.0498 55.383 50.0998C55.3664 53.1165 53.0164 55.5498 50.0164 55.6498C50.0164 55.6331 50.0164 55.6332 49.9997 55.6332ZM49.833 47.0331C48.1497 47.0331 46.783 48.3998 46.783 50.0831C46.783 51.7332 48.0664 53.0665 49.7164 53.1332C49.733 53.1165 49.8664 53.1165 50.0164 53.1332C51.633 53.0498 52.883 51.7165 52.8997 50.0831C52.8997 48.4165 51.533 47.0331 49.833 47.0331Z" fill="#166A37"/>
<path d="M49.9997 67.9332C47.9997 67.9332 45.9997 67.4166 44.4497 66.3666C42.983 65.3832 42.133 63.9832 42.133 62.4832C42.133 60.9999 42.9663 59.5665 44.4497 58.5832C47.5663 56.5165 52.4497 56.5165 55.5497 58.5832C57.0163 59.5665 57.8663 60.9665 57.8663 62.4665C57.8663 63.9499 57.033 65.3832 55.5497 66.3666C53.9997 67.3999 51.9997 67.9332 49.9997 67.9332ZM45.833 60.6832C45.0497 61.1999 44.633 61.8499 44.633 62.4999C44.633 63.1499 45.0663 63.7832 45.833 64.2999C48.083 65.8165 51.8997 65.8165 54.1497 64.2999C54.933 63.7832 55.3497 63.1332 55.3497 62.4832C55.3497 61.8332 54.9163 61.1999 54.1497 60.6832C51.9163 59.1666 48.0997 59.1832 45.833 60.6832Z" fill="#166A37"/>
</svg>
