<svg width="20" height="20" viewBox="0 0 20 20" fill="none" xmlns="http://www.w3.org/2000/svg">
<path d="M18.3333 7.70834H1.66667C1.325 7.70834 1.04167 7.42501 1.04167 7.08334C1.04167 6.74168 1.325 6.45834 1.66667 6.45834H18.3333C18.675 6.45834 18.9583 6.74168 18.9583 7.08334C18.9583 7.42501 18.675 7.70834 18.3333 7.70834Z" fill="#202020"/>
<path d="M6.66667 14.375H5C4.65833 14.375 4.375 14.0917 4.375 13.75C4.375 13.4083 4.65833 13.125 5 13.125H6.66667C7.00833 13.125 7.29167 13.4083 7.29167 13.75C7.29167 14.0917 7.00833 14.375 6.66667 14.375Z" fill="#202020"/>
<path d="M12.0833 14.375H8.75C8.40833 14.375 8.125 14.0917 8.125 13.75C8.125 13.4083 8.40833 13.125 8.75 13.125H12.0833C12.425 13.125 12.7083 13.4083 12.7083 13.75C12.7083 14.0917 12.425 14.375 12.0833 14.375Z" fill="#202020"/>
<path d="M14.6333 17.7083H5.36667C2.05 17.7083 1.04167 16.7083 1.04167 13.425V6.57499C1.04167 3.29166 2.05 2.29166 5.36667 2.29166H14.625C17.9417 2.29166 18.95 3.29166 18.95 6.57499V13.4167C18.9583 16.7083 17.95 17.7083 14.6333 17.7083ZM5.36667 3.54166C2.75 3.54166 2.29167 3.99166 2.29167 6.57499V13.4167C2.29167 16 2.75 16.45 5.36667 16.45H14.625C17.2417 16.45 17.7 16 17.7 13.4167V6.57499C17.7 3.99166 17.2417 3.54166 14.625 3.54166H5.36667Z" fill="#202020"/>
</svg>
