<svg width="20" height="20" viewBox="0 0 20 20" fill="none" xmlns="http://www.w3.org/2000/svg">
<path d="M10 12.5C11.3807 12.5 12.5 11.3807 12.5 10C12.5 8.61929 11.3807 7.5 10 7.5C8.61929 7.5 7.5 8.61929 7.5 10C7.5 11.3807 8.61929 12.5 10 12.5Z" stroke="#202020" stroke-width="1.5" stroke-miterlimit="10" stroke-linecap="round" stroke-linejoin="round"/>
<path d="M1.66667 10.7337V9.267C1.66667 8.40033 2.375 7.68367 3.25 7.68367C4.75833 7.68367 5.375 6.617 4.61667 5.30867C4.18333 4.55867 4.44167 3.58367 5.2 3.15033L6.64167 2.32533C7.3 1.93367 8.15 2.167 8.54167 2.82533L8.63333 2.98367C9.38333 4.292 10.6167 4.292 11.375 2.98367L11.4667 2.82533C11.8583 2.167 12.7083 1.93367 13.3667 2.32533L14.8083 3.15033C15.5667 3.58367 15.825 4.55867 15.3917 5.30867C14.6333 6.617 15.25 7.68367 16.7583 7.68367C17.625 7.68367 18.3417 8.392 18.3417 9.267V10.7337C18.3417 11.6003 17.6333 12.317 16.7583 12.317C15.25 12.317 14.6333 13.3837 15.3917 14.692C15.825 15.4503 15.5667 16.417 14.8083 16.8503L13.3667 17.6753C12.7083 18.067 11.8583 17.8337 11.4667 17.1753L11.375 17.017C10.625 15.7087 9.39167 15.7087 8.63333 17.017L8.54167 17.1753C8.15 17.8337 7.3 18.067 6.64167 17.6753L5.2 16.8503C4.44167 16.417 4.18333 15.442 4.61667 14.692C5.375 13.3837 4.75833 12.317 3.25 12.317C2.375 12.317 1.66667 11.6003 1.66667 10.7337Z" stroke="#202020" stroke-width="1.5" stroke-miterlimit="10" stroke-linecap="round" stroke-linejoin="round"/>
</svg>
