<svg width="184" height="29" viewBox="0 0 184 29" fill="none" xmlns="http://www.w3.org/2000/svg">
<path fill-rule="evenodd" clip-rule="evenodd" d="M12.5488 0.0112745C14.0016 -0.018806 15.4532 0.0112745 16.9035 0.101879C17.4228 0.150805 17.9065 0.301932 18.355 0.554898C15.6359 3.36108 12.8839 6.13955 10.0993 8.89046C8.6938 11.3781 8.81483 13.7943 10.4622 16.1388C11.9605 17.5395 13.7449 18.2946 15.8148 18.4039C16.3399 18.931 16.4911 19.5652 16.2684 20.3066C13.9075 22.9062 11.4276 25.3826 8.82916 27.7361C2.62174 24.399 -0.160548 19.2045 0.482676 12.1522C1.9972 5.5961 6.0193 1.54901 12.5488 0.0112745Z" fill="black"/>
<path fill-rule="evenodd" clip-rule="evenodd" d="M28.3345 9.07168C28.745 10.5788 29.1079 12.089 29.4232 13.6019C29.4455 20.7953 26.1191 25.718 19.4437 28.3703C17.6084 28.9453 15.7335 29.1265 13.8189 28.9139C15.7241 27.0113 17.6293 25.1086 19.5344 23.2059C21.4904 19.984 21.0368 17.1753 18.1736 14.7797C16.938 14.096 15.6074 13.7336 14.1818 13.6925C13.4038 13.0091 13.2526 12.1937 13.7282 11.2462C16.6992 8.21855 19.7233 5.25889 22.8005 2.36699C24.8633 3.64197 26.4963 5.33318 27.6995 7.44081C28.0014 7.95309 28.213 8.49671 28.3345 9.07168Z" fill="black"/>
<path d="M39.2598 23.0708V18.9996C40.9266 20.4477 43.0032 21.2948 45.0524 21.2948C46.9378 21.2948 48.058 20.5297 48.058 19.3001C48.058 18.0979 47.0197 17.4148 45.0251 17.2782C43.2764 17.1416 41.8283 16.6224 40.6807 15.6661C39.5604 14.7098 38.9866 13.4529 38.9866 11.8955C38.9866 8.61663 41.7463 6.32145 45.5989 6.32145C47.6482 6.32145 49.5335 6.92257 51.0909 8.09748V11.9774C49.5881 10.5293 47.7575 9.73689 45.9268 9.73689C44.1508 9.73689 42.9758 10.4746 42.9758 11.8135C42.9758 13.043 44.0141 13.7535 46.2273 13.8901C49.8341 14.1906 52.1839 16.1033 52.1839 19.2728C52.1839 20.9669 51.5554 22.3331 50.2986 23.3713C49.0417 24.3823 47.3749 24.9015 45.3257 24.9015C43.1398 24.9015 40.9266 24.2457 39.2598 23.0708Z" fill="black"/>
<path d="M55.7236 5.91159C56.9258 5.91159 57.9094 6.81327 57.9094 8.04283C57.9094 9.24507 56.9258 10.1467 55.7236 10.1467C54.5213 10.1467 53.5104 9.24507 53.5104 8.04283C53.5104 6.81327 54.5213 5.91159 55.7236 5.91159ZM53.483 11.6495H57.6635V20.6117C57.6635 22.1691 57.8002 23.508 57.9368 24.6282H53.7563V15.5568C53.7563 14.2453 53.6196 12.8791 53.483 11.6495Z" fill="black"/>
<path d="M69.1635 22.8249V21.4314H68.8903C68.0433 22.9615 66.4858 23.7539 64.5459 23.7539C62.9065 23.7539 61.5676 23.1801 60.5566 22.0598C59.5457 20.9122 59.0538 19.4368 59.0538 17.6334C59.0538 15.7754 59.573 14.2726 60.584 13.125C61.5949 11.9501 62.9338 11.3763 64.5732 11.3763C66.4585 11.3763 68.016 12.2507 68.863 13.8901H69.1362L68.8903 11.6495H73.0162V22.6063C73.0162 24.6009 72.3604 26.1583 71.0762 27.2786C69.792 28.4262 68.016 29 65.8028 29C64.0267 29 62.0867 28.5082 60.7479 27.8797V24.7375C62.4693 25.7485 63.9174 26.1037 65.3656 26.1037C67.7427 26.1037 69.1635 24.7922 69.1635 22.8249ZM66.0213 20.7483C67.8793 20.7483 69.2728 19.4914 69.2728 17.5241C69.2728 15.5841 67.8793 14.3273 66.0213 14.3273C64.1633 14.3273 62.9065 15.5568 62.9065 17.5241C62.9065 19.5187 64.1633 20.7483 66.0213 20.7483Z" fill="black"/>
<path d="M74.9995 11.6495H78.8248V13.8081H79.098C79.7264 12.4966 81.1473 11.3763 83.2239 11.3763C84.6174 11.3763 85.7376 11.8135 86.6393 12.7152C87.541 13.6168 87.9782 14.7918 87.9782 16.2399V20.6117C87.9782 22.0598 88.1148 23.6173 88.2514 24.6282H84.0982V17.0596C84.0982 15.4475 83.1692 14.5185 81.7211 14.5185C80.2183 14.5185 79.1527 15.5568 79.1527 17.2235V24.6282H75.3V15.5568C75.3 15.0923 75.2727 14.4639 75.1907 13.6715C75.1361 12.8791 75.0814 12.2233 74.9995 11.6495Z" fill="black"/>
<path d="M97.6325 22.6883H97.3593C96.3483 24.2184 95.0095 24.9015 93.3974 24.9015C90.9929 24.9015 89.2989 23.3987 89.2989 21.2401C89.2989 19.0815 91.0203 17.852 94.5177 17.2782C96.5669 16.9503 97.3866 16.5131 97.3866 15.5568C97.3866 14.6551 96.6762 14.136 95.3647 14.136C93.698 14.136 91.8946 15.0103 90.2825 16.4585V13.1523C91.7033 12.0594 93.7799 11.3763 95.7746 11.3763C99.1353 11.3763 101.267 13.207 101.267 16.1579V20.6117C101.267 22.1418 101.431 23.6173 101.676 24.6282H97.8511L97.6325 22.6883ZM97.4959 19.2455V18.0979C96.9221 18.781 96.1844 19.1089 95.0641 19.4094C93.7526 19.7373 93.1515 20.1745 93.1515 20.9122C93.1515 21.7046 93.8073 22.2238 94.8182 22.2238C96.2664 22.2238 97.4959 21.1035 97.4959 19.2455Z" fill="black"/>
<path d="M107.694 24.6282H103.541V11.6495C103.541 10.338 103.431 8.78057 103.24 6.59468H107.421V20.6117C107.421 21.8959 107.557 23.5353 107.694 24.6282Z" fill="black"/>
<path d="M112.226 24.6282L108.073 11.6495H111.98L114.248 20.2018H114.385L116.516 11.6495H120.56L122.691 20.2018H122.828L125.096 11.6495H129.003L124.822 24.6282H121.079L118.538 15.5295L115.997 24.6282H112.226Z" fill="black"/>
<path d="M137.032 22.6883H136.758C135.747 24.2184 134.409 24.9015 132.796 24.9015C130.392 24.9015 128.698 23.3987 128.698 21.2401C128.698 19.0815 130.419 17.852 133.917 17.2782C135.966 16.9503 136.786 16.5131 136.786 15.5568C136.786 14.6551 136.075 14.136 134.764 14.136C133.097 14.136 131.294 15.0103 129.682 16.4585V13.1523C131.102 12.0594 133.179 11.3763 135.174 11.3763C138.534 11.3763 140.666 13.207 140.666 16.1579V20.6117C140.666 22.1418 140.83 23.6173 141.076 24.6282H137.25L137.032 22.6883ZM136.895 19.2455V18.0979C136.321 18.781 135.583 19.1089 134.463 19.4094C133.152 19.7373 132.551 20.1745 132.551 20.9122C132.551 21.7046 133.206 22.2238 134.217 22.2238C135.665 22.2238 136.895 21.1035 136.895 19.2455Z" fill="black"/>
<path d="M145.523 24.6282L140.823 11.6495H144.812L147.572 20.639H147.709L150.468 11.6495H154.485L149.731 24.6282H145.523Z" fill="black"/>
<path d="M160.667 11.3763C162.498 11.3763 164.001 11.9228 165.148 13.0157C166.296 14.1087 166.87 15.5295 166.87 17.3055C166.87 17.8793 166.788 18.4804 166.651 19.1635H157.798C157.935 20.9942 159.602 21.9505 161.678 21.9505C163.236 21.9505 164.984 21.3767 166.105 20.475V23.6446C164.902 24.437 163.154 24.9015 161.378 24.9015C156.651 24.9015 154 21.8139 154 18.0979C154 14.7098 156.323 11.3763 160.667 11.3763ZM157.88 16.841H163.345C163.591 15.4202 162.607 14.0813 160.831 14.0813C159.219 14.0813 158.017 15.1743 157.88 16.841Z" fill="black"/>
<path d="M170.662 24.6282H166.235L172.438 15.2016L166.618 6.59468H171.072L174.897 12.2507L178.449 6.59468H182.93L177.137 15.5295L183.313 24.6282H178.886L174.678 18.4804L170.662 24.6282Z" fill="black"/>
</svg>
