<svg width="20" height="20" viewBox="0 0 20 20" fill="none" xmlns="http://www.w3.org/2000/svg">
<path d="M7.63303 9.68334C7.60803 9.68334 7.59136 9.68334 7.56636 9.68334C7.52469 9.675 7.46636 9.675 7.41636 9.68334C4.99969 9.60834 3.17469 7.70834 3.17469 5.36667C3.17469 2.98334 5.11636 1.04167 7.49969 1.04167C9.88303 1.04167 11.8247 2.98334 11.8247 5.36667C11.8164 7.70834 9.98303 9.60834 7.65803 9.68334C7.64969 9.68334 7.64136 9.68334 7.63303 9.68334ZM7.49969 2.29167C5.80803 2.29167 4.42469 3.67501 4.42469 5.36667C4.42469 7.03334 5.72469 8.375 7.38303 8.43334C7.43303 8.425 7.54136 8.425 7.64969 8.43334C9.28303 8.35834 10.5664 7.01667 10.5747 5.36667C10.5747 3.67501 9.19136 2.29167 7.49969 2.29167Z" fill="#202020"/>
<path d="M13.783 9.79166C13.758 9.79166 13.733 9.79166 13.708 9.78333C13.3664 9.81666 13.0164 9.575 12.983 9.23333C12.9497 8.89166 13.158 8.58333 13.4997 8.54166C13.5997 8.53333 13.708 8.53333 13.7997 8.53333C15.0164 8.46666 15.9664 7.46666 15.9664 6.24166C15.9664 4.97499 14.9414 3.94999 13.6747 3.94999C13.333 3.95833 13.0497 3.67499 13.0497 3.33333C13.0497 2.99166 13.333 2.70833 13.6747 2.70833C15.6247 2.70833 17.2164 4.3 17.2164 6.24999C17.2164 8.16666 15.7164 9.71666 13.808 9.79166C13.7997 9.79166 13.7914 9.79166 13.783 9.79166Z" fill="#202020"/>
<path d="M7.64134 18.7917C6.00801 18.7917 4.36634 18.375 3.12467 17.5417C1.96634 16.775 1.33301 15.725 1.33301 14.5833C1.33301 13.4417 1.96634 12.3833 3.12467 11.6083C5.62467 9.94999 9.67467 9.94999 12.158 11.6083C13.308 12.375 13.9497 13.425 13.9497 14.5667C13.9497 15.7083 13.3163 16.7667 12.158 17.5417C10.908 18.375 9.27467 18.7917 7.64134 18.7917ZM3.81634 12.6583C3.01634 13.1917 2.58301 13.875 2.58301 14.5917C2.58301 15.3 3.02467 15.9833 3.81634 16.5083C5.89134 17.9 9.39134 17.9 11.4663 16.5083C12.2663 15.975 12.6997 15.2917 12.6997 14.575C12.6997 13.8667 12.258 13.1833 11.4663 12.6583C9.39134 11.275 5.89134 11.275 3.81634 12.6583Z" fill="#202020"/>
<path d="M15.283 17.2917C14.9913 17.2917 14.733 17.0917 14.6747 16.7917C14.608 16.45 14.8247 16.125 15.158 16.05C15.683 15.9417 16.1663 15.7333 16.5413 15.4417C17.0163 15.0833 17.2747 14.6333 17.2747 14.1583C17.2747 13.6833 17.0163 13.2333 16.5497 12.8833C16.183 12.6 15.7247 12.4 15.183 12.275C14.8497 12.2 14.633 11.8667 14.708 11.525C14.783 11.1917 15.1163 10.975 15.458 11.05C16.1747 11.2083 16.7997 11.4917 17.308 11.8833C18.083 12.4667 18.5247 13.2917 18.5247 14.1583C18.5247 15.025 18.0747 15.85 17.2997 16.4417C16.783 16.8417 16.133 17.1333 15.4163 17.275C15.3663 17.2917 15.3247 17.2917 15.283 17.2917Z" fill="#202020"/>
</svg>
