<svg width="41" height="40" viewBox="0 0 41 40" fill="none" xmlns="http://www.w3.org/2000/svg">
<rect x="0.333374" width="40" height="40" rx="20" fill="#EFEFF9"/>
<path d="M25.1934 28.9913H15.4711C11.9225 28.9913 9.88086 26.9496 9.88086 23.401V16.5955C9.88086 13.0469 11.9225 11.0052 15.4711 11.0052H25.1934C28.742 11.0052 30.7836 13.0469 30.7836 16.5955V23.401C30.7836 26.9496 28.742 28.9913 25.1934 28.9913ZM15.4711 12.4635C12.6906 12.4635 11.3392 13.8149 11.3392 16.5955V23.401C11.3392 26.1816 12.6906 27.533 15.4711 27.533H25.1934C27.9739 27.533 29.3253 26.1816 29.3253 23.401V16.5955C29.3253 13.8149 27.9739 12.4635 25.1934 12.4635H15.4711Z" fill="#454ADE"/>
<path d="M20.3333 23.6442C18.3208 23.6442 16.6875 22.0109 16.6875 19.9984C16.6875 17.9859 18.3208 16.3525 20.3333 16.3525C22.3458 16.3525 23.9792 17.9859 23.9792 19.9984C23.9792 22.0109 22.3458 23.6442 20.3333 23.6442ZM20.3333 17.8109C19.1278 17.8109 18.1458 18.7928 18.1458 19.9984C18.1458 21.2039 19.1278 22.1859 20.3333 22.1859C21.5389 22.1859 22.5208 21.2039 22.5208 19.9984C22.5208 18.7928 21.5389 17.8109 20.3333 17.8109Z" fill="#454ADE"/>
<path d="M14.015 23.158C13.6164 23.158 13.2858 22.8274 13.2858 22.4288V17.5677C13.2858 17.1691 13.6164 16.8385 14.015 16.8385C14.4136 16.8385 14.7442 17.1691 14.7442 17.5677V22.4288C14.7442 22.8274 14.4136 23.158 14.015 23.158Z" fill="#454ADE"/>
<path d="M26.6517 23.158C26.2531 23.158 25.9225 22.8274 25.9225 22.4288V17.5677C25.9225 17.1691 26.2531 16.8385 26.6517 16.8385C27.0503 16.8385 27.3809 17.1691 27.3809 17.5677V22.4288C27.3809 22.8274 27.0503 23.158 26.6517 23.158Z" fill="#454ADE"/>
</svg>
