<svg width="41" height="40" viewBox="0 0 41 40" fill="none" xmlns="http://www.w3.org/2000/svg">
<rect x="0.666687" width="40" height="40" rx="20" fill="#EFF7F9"/>
<path d="M19.3643 29.5773C14.5609 29.5773 10.6667 25.683 10.6667 20.8797C10.6667 16.1746 14.4195 12.3157 19.1235 12.1875C19.4684 12.1781 19.7561 12.4504 19.7653 12.7953L19.7676 21.1543H27.3849C27.731 21.1543 28.0118 21.4349 28.0118 21.7811C27.6186 26.1888 23.75 29.5779 19.3643 29.5779L19.3643 29.5773ZM26.6515 22.4075H19.1401C18.7936 22.4075 18.5131 22.127 18.5131 21.7805V13.4822C14.7573 13.9089 11.9203 17.0964 11.9203 20.8793C11.9203 24.9889 15.2544 28.3229 19.3639 28.3229C22.8871 28.3229 25.933 25.8531 26.6511 22.4071L26.6515 22.4075Z" fill="#45B0DE"/>
<path d="M21.9898 10.0002C27.2809 9.999 31.0728 14.4334 30.632 19.6669C30.5973 19.9875 30.325 20.2251 30.0097 20.2241L21.7654 20.2256C21.4193 20.2256 21.1387 19.9448 21.1387 19.5989V10.6298C21.1387 10.0946 21.5723 10.0051 21.9894 10L21.9898 10.0002ZM22.3928 11.2641V18.9716H29.4295C29.4928 14.8742 26.5147 11.4833 22.3928 11.2641Z" fill="#45B0DE"/>
</svg>
