<svg width="40" height="40" viewBox="0 0 40 40" fill="none" xmlns="http://www.w3.org/2000/svg">
<rect width="40" height="40" rx="20" fill="#FFEFE7"/>
<path d="M16.6666 11.6667V14.1667" stroke="#FF9152" stroke-width="1.5" stroke-miterlimit="10" stroke-linecap="round" stroke-linejoin="round"/>
<path d="M23.3334 11.6667V14.1667" stroke="#FF9152" stroke-width="1.5" stroke-miterlimit="10" stroke-linecap="round" stroke-linejoin="round"/>
<path d="M23.3333 12.9167C26.1083 13.0667 27.5 14.125 27.5 18.0417V23.1917C27.5 26.625 26.6667 28.3417 22.5 28.3417H17.5C13.3333 28.3417 12.5 26.625 12.5 23.1917V18.0417C12.5 14.125 13.8917 13.075 16.6667 12.9167H23.3333Z" stroke="#FF9152" stroke-width="1.5" stroke-miterlimit="10" stroke-linecap="round" stroke-linejoin="round"/>
<path d="M27.2917 24.6663H12.7084" stroke="#FF9152" stroke-width="1.5" stroke-miterlimit="10" stroke-linecap="round" stroke-linejoin="round"/>
<path d="M18.9405 19.2196C18.7346 19.0576 18.6083 18.8283 18.6083 18.5167C18.6083 18.1233 18.7586 17.8582 18.9815 17.6805C19.2177 17.4921 19.5721 17.375 20 17.375C20.4277 17.375 20.7794 17.492 21.0131 17.6796C21.2336 17.8565 21.3833 18.1216 21.3833 18.5167C21.3833 18.8198 21.2704 19.0388 21.0694 19.2045C21.1869 19.0229 21.25 18.8073 21.25 18.575C21.25 18.2292 21.1131 17.9211 20.8599 17.7074C20.6163 17.5019 20.3054 17.4167 20 17.4167C19.6945 17.4167 19.3836 17.5019 19.14 17.7074C18.8868 17.9211 18.75 18.2292 18.75 18.575C18.75 18.8137 18.8166 19.0349 18.9405 19.2196ZM21.45 20.8917C21.45 20.6942 21.4082 20.5111 21.3301 20.349C21.4979 20.5369 21.5833 20.7697 21.5833 21.025C21.5833 21.4004 21.4442 21.6718 21.2097 21.8602C20.9628 22.0586 20.5641 22.2 20 22.2C19.431 22.2 19.0329 22.0583 18.7876 21.8607C18.5549 21.6731 18.4166 21.4021 18.4166 21.025C18.4166 20.7733 18.4999 20.544 18.6655 20.3546C18.59 20.5154 18.55 20.6966 18.55 20.8917C18.55 21.2903 18.7168 21.6319 19.0117 21.8613C19.2921 22.0794 19.6483 22.1667 20 22.1667C20.3516 22.1667 20.7078 22.0794 20.9882 21.8613C21.2832 21.6319 21.45 21.2903 21.45 20.8917Z" fill="#FF9152" stroke="#FF9152"/>
</svg>
